<svg xmlns="http://www.w3.org/2000/svg" viewBox="0 0 600 400"><path fill="#625E8D" d="M134.139,349.415c0,1.142-6.434,2.067-14.371,2.067c-7.937,0-14.371-0.926-14.371-2.067      c0-1.142,6.434-2.067,14.371-2.067C127.704,347.348,134.139,348.273,134.139,349.415z"/><polygon fill="#F5EAE6" points="133.317 348.697 119.719 350.986 119.519 350.834 111.366 345.038 111.182 344.904 111.399 344.921 124.379 346.325 130.544 340.444 130.644 340.345 130.694 340.478"/><polygon fill="#F4E9E5" points="130.544 340.444 124.379 346.325 111.399 344.921 114.306 337.119"/><ellipse cx="288.23" cy="356.75" fill="#625E8D" rx="103.828" ry="12.29"/><path fill="#695F80" d="M353.531,127.003c0.26-0.352,0.521-0.731,0.782-1.143c4.783-7.526-5.847-11.803-5.847-11.803      c5.696,2.151,0.966,5.888-3.464,4.515c-8.199-2.543-23.975-12.907-24.757-13.063c-10.75-7.233-15.642-9.693-23.611-10.53      c-8.441-0.886-14.197,11.775-14.197,11.775s-3.867-0.591-7.466,0.709c-3.599,1.299-8.387,4.356-5.907,17.734      c2.48,13.378,8.697,17.138,8.697,17.138l5.245-2.846c0.094,0.556,0.163,0.874,0.163,0.874l0.708,4.623l11.599,15.464      l10.369-1.793c0,0,2.454-9.805,2.263-10.276c-0.189-0.471,13.012-26.403,13.012-26.403l8.299,6.035c0,0,5.561-0.943,8.203-1.321      c2.639-0.378,4.809-2.923,4.809-2.923l3.803,7.345l-2.246,4.362c2.403,0.565,15.612-5.043,16.035-9.144      C360.236,124.265,356.952,125.347,353.531,127.003z"/><path fill="#FAC8B8" d="M291.87,172.883c-2.083,18.512-10.747,25.734-10.726,25.797c0.069,0.18,6.204,34.231,33.983,21.272      c-2.186-8.684,1.865-19.6,3.97-24.831C308.495,190.08,299.905,181.017,291.87,172.883z"/><path fill="#FAC8B8" d="M351.651,152.068c1.932-8.04-7.346-26.768-8.296-28.577c-3.237,2.375-7.591,3.901-10.647,3.358      c-3.486-0.656-6.108-4.1-8.778-8.557c-2.398-4.052-8.036-4.865-12.947-3.237c-4.978,1.654-9.785,8.079-8.722,18.104      c1.99,18.874-3.589,22.684-3.542,22.46c0.86-5.385-0.522-11.852-3.807-15.609c-1.47-1.672-4.269-2.608-5.804-2.507      c-19.39,1.285-13.946,22.514-12.062,25.666c4.379,7.327,14.172,5.318,14.24,5.249c0.135-0.114,0.338-0.162,0.54-0.114      c0.182,0.068,0.396,0.22,0.386,0.406c-0.076,1.453-0.195,2.84-0.345,4.174c8.036,8.134,16.626,17.197,27.227,22.238      c0.381-0.947,0.699-1.709,0.904-2.237c-1.767-0.794,9.456,3.749,15.62,0.912c13.155-6.056,14.427-30.688,14.658-34.875      c0,0,4.076-1.879,4.434-3.672C355.033,153.64,351.639,152.1,351.651,152.068z"/><path fill="#FAC8B8" d="M255.981,74.461c-2.369,2.035-4.193,3.968-4.941,5.578c-2.003,4.276-16.387,17.524-16.387,17.524      s-36.889,41.118-41.45,49.937c-4.116,7.976-10.332,21.823-10.044,27.591c12.672,1.124,25.272-0.55,37.633-3.009      c2.132-3.365,22.028-35.011,28.147-53.999c2.837-8.804,11.776-25.052,19.048-30.038      C263.727,83.911,259.144,79.466,255.981,74.461z"/><path fill="#FAC8B8" d="M183.159,175.092c0.031,0.623,0.136,1.155,0.33,1.572c1.888,4.042,17.412,20.432,21.454,25.454      c9.489-6.332,21.24-17.873,23.445-25.983c-1.354-1.119-5.615-2.653-7.793-3.742c0,0,0.075-0.118,0.197-0.31      C208.431,174.542,195.831,176.216,183.159,175.092z"/><path fill="#FAC8B8" d="M291.066,64.237c-13.097-2.289-13.948-4.428-21.215,0.284c-4.531,2.926-9.949,6.573-13.87,9.941      c3.163,5.005,7.746,9.45,12.005,13.584c1.866-1.28,3.624-1.83,5.139-1.308c7.4,2.573,13.965-2.556,18.224-3.14      c0.936-0.117,1.186-0.367,0.969-0.685c-0.016,0-0.016,0-0.016-0.016c-0.769-1.119-6.999-3.291-7.217-5.279      c-0.166-1.502,2.222-4.578,5.563-6.114c2.34-1.085,4.888-0.867,7.836,0.134C303.049,73.187,304.181,66.509,291.066,64.237z"/><path fill="#FAC8B8" d="M371.55,223.18c-0.15,1.938,0.126,19.563,3.234,38.947c6.246-2.322,31.217-4.158,36.828-7.448      c0.208-0.123,0.416-0.285,0.625-0.479c-8.54-8.81-13.985-18.948-17.818-29.821L371.55,223.18z"/><path fill="#FAC8B8" d="M419.617,150.712c0.311,0.497,0.562,1.016,0.733,1.563c1.888,6.08-2.656,17.289-14.451,37.052      c-8.27,13.881-11.973,29.935-10.938,35.08l-0.543-0.028c3.833,10.873,9.278,21.011,17.818,29.821      c6.289-5.857,13.239-43.486,17.653-59.201c4.56-16.237,8.649-37.278,11.061-46.966c0.132-0.532,0.242-1.071,0.341-1.613      C434.514,148.983,427.151,150.18,419.617,150.712z"/><path fill="#FAC8B8" d="M432.979,119.732c-0.032-0.016-0.05-0.016-0.067-0.032c-0.819-0.369-1.604-0.635-2.305-0.853      c-5.697-1.703-21.283,0.953-13.681,2.657c2.338,0.534,4.109,2.105,5.429,4.008c2.137,3.073,3.122,7.051,3.491,9.022      c0,0,0,0.016,0,0.032c0.15,0.752,0.2,1.186,0.2,1.186l-0.184-0.049l-30.019-9.255c-0.385,4.744,8.168,4.927,9.689,11.009      c1.384,5.533,10.939,8.231,14.084,13.255c7.534-0.532,14.897-1.728,21.676-4.292      C443.337,135.238,438.461,122.185,432.979,119.732z"/><path fill="#CAD2E7" d="M291.066,64.237c13.115,2.272,12.869,8.95,7.418,7.4c-2.994-0.851-5.496-1.219-7.836-0.134       c3.809,3.024,79,41.731,131.707,54.009c-1.32-1.904-3.091-3.475-5.429-4.008c-7.602-1.705,7.984-4.361,13.681-2.657       c0.701,0.219,1.486,0.485,2.305,0.853C309.977,51.574,291.066,64.237,291.066,64.237z"/><path fill="#CAD2E7" d="M367.292,98.933c-0.467,0.87-2.873,0.503-5.362-0.835c-2.506-1.336-4.142-3.122-3.658-3.992       c0.468-0.886,2.873-0.517,5.362,0.819C366.125,96.261,367.761,98.049,367.292,98.933z"/><path fill="#94B4DD" d="M425.863,135.703l-30.019-9.255C348.784,112.9,307.07,91.083,292.319,82.913      c-0.016,0-0.016,0-0.016-0.016c-0.769-1.119-6.999-3.29-7.217-5.279c-0.166-1.502,2.222-4.578,5.563-6.114      c3.809,3.024,79,41.731,131.707,54.009c2.137,3.073,3.122,7.051,3.491,9.022c0,0,0,0.016,0,0.032      C425.879,134.9,425.879,135.285,425.863,135.703z"/><path fill="#CAD2E7" d="M467.626,64.949c4.326-9.043,13.232-3.643,16.885-11.274c1.204-2.519,1.175-5.936-1.716-7.318      c-3.504-1.679-6.191,1.723-7.178,1.251c-0.675-0.323-2.53-7.031-2.176-7.767c0.943-1.971,7.648-3.979,13.306-1.269      c7.811,3.738,9.687,13.25,6.124,20.694c-5.325,11.133-18.743,7.891-21.006,12.624c-1.295,2.708-1.672,2.075-4.382,0.78      c-2.028-0.97-3.065-1.015-1.976-3.292L467.626,64.949z"/><path fill="#CAD2E7" d="M456.949,81.097c1.449-3.035,5.165-4.304,8.196-2.852c3.185,1.522,4.602,5.19,3.101,8.318      c-1.498,3.137-5.235,4.326-8.369,2.826C456.74,87.892,455.473,84.182,456.949,81.097z"/><path fill="#CAD2E7" d="M433.356,62.986c-0.705-10.001,9.705-9.704,9.113-18.141c-0.194-2.786-1.91-5.741-5.105-5.519      c-3.878,0.273-4.533,4.558-5.623,4.635c-0.749,0.054-5.672-4.866-5.731-5.679c-0.15-2.178,4.687-7.237,10.945-7.677      c8.638-0.609,14.968,6.739,15.544,14.971c0.87,12.314-12.397,16.12-12.03,21.353c0.21,2.994-0.431,2.628-3.426,2.837      c-2.242,0.162-3.168,0.633-3.343-1.883L433.356,62.986z"/><path fill="#CAD2E7" d="M432.046,82.298c-0.238-3.352,2.366-6.289,5.718-6.525c3.522-0.246,6.563,2.237,6.808,5.702      c0.243,3.468-2.419,6.348-5.886,6.589C435.22,88.309,432.284,85.712,432.046,82.298z"/><path fill="#94B4DD" d="M228.954,175.928c0,0-3.161,8.644-14.136,18.072c-10.975,9.428-12.551,10.122-12.551,10.122      l31.208,36.471c0,0-0.967,39.83-2.1,53.12c-1.133,13.289-6.272,43.327-9.616,55.58c-3.344,12.253-4.38,16.447-4.38,16.447      s38.188,3.495,71.488,3.685s77.531-4.578,77.531-4.578l-17.558-57.832l-12.232-38.903l38.486-4.857      c0,0-3.355-20.802-3.292-29.615c0.063-8.813-0.253-10.46-0.253-10.46l-56.156-3.102l2.152,4.938c0,0-11.522,5.825-22.981,2.026      c-11.459-3.799-17.192-17.336-17.192-17.336l-3.143-9.686l6.289-1.151C280.519,198.87,251.641,188.677,228.954,175.928z"/><path fill="#F5EAE6" d="M281.144,198.68l-6.922,1.72c0,0,3.429,18.555,16.698,25.025c13.269,6.471,26.412-0.305,26.412-0.305      l-2.643-5.337c0,0-11.682,7.091-20.925,0.591C284.52,213.874,281.144,198.68,281.144,198.68z"/><path fill="#A68290" d="M338.46,169.379c-2.217-0.477-6.1,2.278-6.292,6.55c-0.191,4.271,2.478,5.892,4.79,2.245      c2.312-3.647,2.55-4.338,2.312-5.935C339.033,170.642,338.46,169.379,338.46,169.379z"/><path fill="#231F20" d="M119.726,351.332c-0.072,0-0.143-0.022-0.203-0.065l-8.547-6.079c-0.13-0.092-0.181-0.261-0.125-0.409    c0.056-0.149,0.205-0.235,0.365-0.224l13.041,1.409l6.151-5.872c0.087-0.083,0.213-0.116,0.328-0.086    c0.117,0.03,0.21,0.118,0.247,0.233l2.66,8.356c0.031,0.097,0.018,0.202-0.035,0.289c-0.053,0.086-0.141,0.146-0.241,0.163    l-13.583,2.281C119.764,351.33,119.745,351.332,119.726,351.332z M112.474,345.395l7.336,5.217l13.042-2.19l-2.368-7.438    l-5.863,5.597c-0.074,0.071-0.179,0.103-0.279,0.095L112.474,345.395z"/><path fill="#231F20" d="M111.083,344.873c-0.047,0-0.094-0.009-0.14-0.029c-0.177-0.077-0.258-0.283-0.181-0.46l3.229-7.408    c0.065-0.15,0.223-0.238,0.388-0.204l15.958,3.134c0.19,0.037,0.313,0.221,0.276,0.411c-0.037,0.19-0.219,0.317-0.411,0.276    l-15.682-3.08l-3.116,7.15C111.347,344.794,111.218,344.873,111.083,344.873z"/><path fill="#231F20" d="M204.943,202.468c-0.108,0-0.214-0.049-0.283-0.143c-0.847-1.153-3.54-4.154-6.659-7.628    c-6.022-6.71-13.518-15.062-14.83-17.885c-2.065-4.441,8.268-28.582,14.08-36.499c7.871-10.723,49.965-56.737,53.535-60.513    c6.872-7.268,12.125-11.213,18.876-15.573c5.674-3.68,7.605-3.253,14.009-1.839c1.948,0.43,4.373,0.965,7.456,1.504    c7.111,1.232,10.354,3.63,11.017,5.464c0.257,0.711,0.161,1.382-0.271,1.89c-0.646,0.758-1.903,1.026-3.452,0.734l-0.788-0.151    c-2.489-0.484-4.84-0.941-6.852-0.009c-1.716,0.792-3.298,2.061-4.342,3.482c-0.688,0.887-1.062,1.736-1.004,2.278    c0.108,1.025,2.665,2.395,3.894,3.053c0.093,0.047,0.209,0.113,0.327,0.18l0.27,0.146c0.667,0.361,1.296,0.703,1.78,1.005    c0.061,0.044,0.094,0.062,0.132,0.084c0.002,0.001,0.078,0.046,0.08,0.047c0.47,0.321,0.918,0.7,0.809,1.154    c-0.113,0.473-0.735,0.617-1.329,0.695c-1.278,0.175-2.774,0.775-4.507,1.47c-3.855,1.546-8.653,3.468-13.877,1.653    c-8.091-2.788-18.429,18.585-26.534,37.517c-10.991,25.67-23.582,44.977-25.376,47.681l0.334,0.178    c3.259,1.738,3.938,2.1,7.083,3.366c0.179,0.072,0.266,0.276,0.194,0.456c-0.072,0.179-0.275,0.267-0.456,0.194    c-3.181-1.28-3.865-1.645-7.151-3.398l-0.675-0.36c-0.088-0.047-0.151-0.128-0.175-0.225c-0.024-0.096-0.005-0.198,0.05-0.281    c0.136-0.2,13.751-20.379,25.528-47.886c8.736-20.403,18.821-40.856,27.407-37.903c4.979,1.731,9.641-0.139,13.388-1.642    c1.775-0.712,3.309-1.327,4.675-1.514c0.43-0.057,0.624-0.128,0.706-0.17c-0.05-0.066-0.174-0.193-0.472-0.397    c-0.115-0.065-0.173-0.1-0.231-0.145c-0.438-0.271-1.059-0.608-1.716-0.964l-0.26-0.141c-0.129-0.073-0.235-0.134-0.327-0.18    c-2.087-1.118-4.131-2.314-4.266-3.6c-0.078-0.739,0.328-1.724,1.142-2.773c1.106-1.506,2.787-2.856,4.606-3.695    c2.217-1.028,4.791-0.527,7.28-0.043l0.784,0.151c1.276,0.24,2.318,0.053,2.789-0.5c0.336-0.395,0.265-0.87,0.146-1.198    c-0.57-1.574-3.656-3.831-10.479-5.013c-3.099-0.542-5.532-1.079-7.487-1.51c-6.342-1.4-8.048-1.778-13.477,1.743    c-6.707,4.332-11.924,8.25-18.748,15.466c-3.567,3.773-45.625,49.745-53.479,60.446c-6.135,8.357-15.827,31.879-14.009,35.79    c1.268,2.729,9.041,11.389,14.716,17.712c3.131,3.489,5.835,6.501,6.703,7.682c0.114,0.156,0.081,0.375-0.075,0.489    C205.087,202.446,205.015,202.468,204.943,202.468z"/><path fill="#231F20" d="M233.324,241.152c-0.103,0-0.2-0.045-0.267-0.123c-0.196-0.231-19.744-23.206-31.058-36.681    c-0.062-0.075-0.091-0.172-0.079-0.269c0.012-0.097,0.064-0.184,0.143-0.241c0.227-0.163,22.736-16.401,26.559-28.019    c0.033-0.099,0.108-0.178,0.205-0.216c0.098-0.038,0.207-0.031,0.297,0.02c0.293,0.162,29.585,16.313,52.121,23.103    c0.184,0.055,0.289,0.248,0.235,0.432c-0.053,0.184-0.242,0.292-0.43,0.24c-0.141-0.039-14.979-3.328-47.443,41.61    c-0.063,0.087-0.163,0.14-0.27,0.145C233.333,241.152,233.328,241.152,233.324,241.152z M202.777,204.186    c10.585,12.603,28.067,33.161,30.524,36.05c25.516-35.22,40.045-40.852,45.474-41.547c-20.859-6.711-46.288-20.432-49.625-22.253    C225.125,187.61,205.586,202.14,202.777,204.186z"/><path fill="#231F20" d="M366.398,365.198c-0.15,0-0.289-0.097-0.335-0.249l-26.023-85.714c-2.97-9.608-6.727-19.11-11.166-28.239    c-4.917-10.114-11.32-23.69-13.895-30.927c-0.065-0.182,0.03-0.382,0.212-0.447c0.179-0.066,0.382,0.029,0.447,0.212    c2.565,7.207,8.956,20.757,13.866,30.855c4.454,9.161,8.224,18.696,11.205,28.34l26.023,85.716    c0.056,0.185-0.048,0.38-0.233,0.437C366.466,365.193,366.432,365.198,366.398,365.198z"/><path fill="#231F20" d="M217.379,366.091c-0.028,0-0.056-0.003-0.084-0.01c-0.188-0.046-0.302-0.236-0.256-0.424l5.375-21.758    c6.105-24.712,9.512-49.981,10.127-75.107c0.371-15.148,0.432-27.866,0.433-27.992c0.001-0.193,0.158-0.349,0.35-0.349    c0,0,0.001,0,0.001,0c0.193,0.001,0.35,0.158,0.349,0.352c0,0.127-0.062,12.851-0.433,28.007    c-0.617,25.176-4.031,50.496-10.147,75.257l-5.375,21.758C217.679,365.984,217.536,366.091,217.379,366.091z"/><path fill="#231F20" d="M374.783,262.477c-0.174,0-0.326-0.13-0.347-0.308c-0.023-0.192,0.114-0.366,0.306-0.39    c0.303-0.036,30.365-3.691,36.693-7.402c4.815-2.845,16.204-51.185,23.008-80.066c2.133-9.056,3.976-16.877,5.131-21.269    c4.287-16.379-1.128-30.479-6.739-32.99c-0.015-0.007-0.04-0.02-0.066-0.035l0,0.002c-0.845-0.38-1.654-0.648-2.266-0.839    c-3.963-1.186-12.792-0.205-14.935,1.011c-0.299,0.17-0.339,0.276-0.341,0.282l0,0c0.005,0,0.153,0.325,1.776,0.689    c6.295,1.42,8.522,9.778,9.187,13.306c0.036,0.19-0.089,0.373-0.279,0.409c-0.192,0.039-0.374-0.089-0.409-0.279    c-0.499-2.646-2.598-11.387-8.653-12.753c-1.443-0.324-2.152-0.691-2.295-1.192c-0.043-0.151-0.069-0.451,0.245-0.762    c1.557-1.541,11.648-2.654,15.908-1.38c0.634,0.198,1.47,0.474,2.349,0.87c0.017,0.008,0.032,0.016,0.047,0.026    c5.874,2.678,11.517,17.119,7.148,33.813c-1.152,4.384-2.994,12.201-5.126,21.252c-7.271,30.866-18.261,77.512-23.334,80.509    c-6.455,3.786-35.722,7.345-36.965,7.495C374.812,262.476,374.797,262.477,374.783,262.477z"/><path fill="#231F20" d="M394.962,224.757c-0.005,0-0.01,0-0.015,0c-0.193-0.008-0.343-0.171-0.335-0.364    c0.008-0.181,0.885-18.292,10.986-35.245c11.911-19.957,16.223-30.953,14.417-36.769c-0.903-2.883-4.148-5.046-7.287-7.138    c-3.311-2.207-6.733-4.488-7.536-7.699c-0.732-2.928-3.244-4.469-5.46-5.828c-2.287-1.402-4.447-2.728-4.238-5.294    c0.008-0.106,0.064-0.202,0.152-0.261c0.087-0.061,0.198-0.076,0.299-0.045l30.02,9.255c0.185,0.057,0.289,0.253,0.231,0.438    c-0.057,0.185-0.254,0.291-0.438,0.231l-29.574-9.118c0.104,1.861,1.88,2.95,3.913,4.197c2.33,1.43,4.971,3.049,5.772,6.255    c0.737,2.948,4.046,5.153,7.246,7.286c3.24,2.159,6.589,4.392,7.567,7.512c1.896,6.105-2.301,16.922-14.484,37.335    c-10.008,16.795-10.881,34.736-10.889,34.916C395.304,224.61,395.148,224.757,394.962,224.757z"/><path fill="#231F20" d="M336.608,268.463c-0.159,0-0.303-0.109-0.34-0.271c-0.044-0.188,0.073-0.376,0.261-0.42    c10.754-2.512,34.756-4.117,38.146-4.334c-3.216-16.515-3.617-38.275-3.474-40.283c0.014-0.193,0.18-0.341,0.374-0.324    c0.193,0.014,0.338,0.181,0.324,0.374c-0.143,2.012,0.266,23.992,3.54,40.489c0.02,0.099-0.004,0.202-0.066,0.282    c-0.062,0.08-0.155,0.129-0.256,0.135c-0.269,0.017-26.958,1.663-38.428,4.342C336.662,268.46,336.635,268.463,336.608,268.463z"/><path fill="#231F20" d="M433.926,120.619c-0.057,0-0.116-0.014-0.169-0.044c-121.83-67.644-142.3-56.176-142.493-56.052    c-0.161,0.105-0.377,0.06-0.483-0.102c-0.105-0.16-0.063-0.375,0.096-0.481c0.784-0.525,20.584-12.067,143.219,56.023    c0.169,0.094,0.23,0.307,0.136,0.476C434.169,120.554,434.049,120.619,433.926,120.619z"/><path fill="#231F20" d="M421.871,125.845c-0.026,0-0.052-0.003-0.078-0.009c-53.474-12.113-128.096-51.344-131.385-54.064    c-0.149-0.123-0.17-0.344-0.046-0.493c0.123-0.149,0.343-0.17,0.493-0.046c3.278,2.711,77.715,41.829,131.093,53.92    c0.188,0.042,0.307,0.23,0.264,0.418C422.175,125.735,422.031,125.845,421.871,125.845z"/><path fill="#231F20" d="M395.838,126.793c-0.032,0-0.064-0.004-0.097-0.014C337.624,110.053,287.5,80.363,287,80.065    c-0.166-0.099-0.22-0.314-0.122-0.48c0.1-0.167,0.314-0.22,0.48-0.122c0.499,0.298,50.549,29.943,108.576,46.644    c0.186,0.054,0.293,0.248,0.24,0.433C396.13,126.693,395.991,126.793,395.838,126.793z"/><path fill="#231F20" d="M281.143,199.41c-0.164,0-0.31-0.115-0.343-0.282c-0.038-0.189,0.085-0.374,0.275-0.412    c1.715-0.341,11.425-15.887,10.672-29.891c-1.491,0.362-6.57,1.305-10.94-1.311c-3.106-1.86-5.147-5.113-6.067-9.668    c-1.64-8.123,0.968-13.115,3.444-15.873c3.377-3.761,8.059-5.148,11.211-4.862c2.741,0.252,5.005,1.508,6.729,3.731    c2.574,3.32,3.675,8.555,3.023,14.193c1.411-2.175,4.177-8.407,2.69-22.525c-1.118-10.63,4.19-16.319,9.531-18.098    c5.377-1.791,10.981,0.056,13.628,4.49c2.55,4.27,5.488,6.741,8.732,7.342c2.987,0.552,6.157-0.463,9.415-3.022    c0.082-0.063,0.186-0.088,0.287-0.067s0.188,0.085,0.237,0.175c0.421,0.772,10.297,19.027,8.299,28.308    c-0.041,0.189-0.228,0.309-0.416,0.269c-0.189-0.041-0.309-0.227-0.269-0.416c1.793-8.327-6.639-24.812-8.036-27.463    c-3.269,2.466-6.596,3.47-9.645,2.905c-3.451-0.64-6.548-3.221-9.205-7.672c-2.478-4.149-7.743-5.87-12.807-4.184    c-5.083,1.693-10.131,7.143-9.056,17.36c1.991,18.912-3.447,23.89-3.68,24.092c-0.112,0.097-0.271,0.113-0.4,0.042    c-0.129-0.072-0.199-0.216-0.176-0.362c0.957-5.934-0.055-11.519-2.708-14.939c-1.601-2.064-3.7-3.229-6.24-3.463    c-2.967-0.271-7.411,1.053-10.625,4.632c-2.369,2.639-4.861,7.429-3.278,15.267c0.878,4.352,2.809,7.449,5.736,9.204    c4.806,2.881,10.748,1.15,10.808,1.132c0.101-0.032,0.211-0.013,0.3,0.047c0.087,0.06,0.143,0.157,0.15,0.264    c0.958,13.857-8.979,30.605-11.208,31.049C281.189,199.407,281.166,199.41,281.143,199.41z"/><path fill="#231F20" d="M343.073,161.416c-0.163,0-0.308-0.114-0.342-0.279c-0.039-0.189,0.083-0.375,0.272-0.414    c2.862-0.59,10.468-2.678,11.289-5.212c0.181-0.558,0.009-1.113-0.525-1.697c-0.811-0.887-1.807-1.35-2.959-1.376    c-3.435-0.067-7.26,3.689-7.298,3.727c-0.137,0.137-0.358,0.137-0.495,0s-0.137-0.358,0-0.495    c0.164-0.164,4.044-4.057,7.807-3.932c1.352,0.03,2.516,0.569,3.462,1.603c0.709,0.775,0.936,1.578,0.675,2.385    c-1.114,3.438-11.377,5.592-11.813,5.682C343.121,161.414,343.097,161.416,343.073,161.416z"/><path fill="#231F20" d="M329.575,195.345c-4.593,0-9.841-1.751-15.694-5.248c-0.166-0.099-0.22-0.314-0.121-0.48    c0.099-0.165,0.313-0.219,0.48-0.121c9.184,5.486,16.8,6.593,22.638,3.29c12.836-7.263,13.05-33.6,13.05-33.865    c0-0.193,0.157-0.349,0.35-0.349c0,0,0,0,0.001,0c0.193,0,0.35,0.158,0.349,0.351c0,0.067-0.035,6.804-1.685,14.364    c-1.531,7.014-4.807,16.196-11.72,20.108C334.925,194.695,332.371,195.345,329.575,195.345z"/><path fill="#231F20" d="M394.962,224.757c-0.007,0-0.013,0-0.02,0l-79.652-4.455c-0.14-0.008-0.261-0.098-0.309-0.229    c-3.744-10.238,4.354-26.652,4.701-27.345c0.086-0.172,0.296-0.244,0.469-0.157c0.173,0.086,0.243,0.296,0.157,0.469    c-0.083,0.166-8.191,16.599-4.747,26.576l79.42,4.441c0.193,0.011,0.341,0.176,0.33,0.369    C395.301,224.613,395.146,224.757,394.962,224.757z"/><path fill="#231F20" d="M303.248,223.529c-2.799,0-5.417-0.603-7.843-1.81c-5.816-2.895-9.413-8.792-11.406-13.229    c-2.151-4.789-2.949-8.961-2.957-9.003c-0.036-0.19,0.089-0.373,0.279-0.408c0.186-0.038,0.373,0.089,0.408,0.279    c0.031,0.163,3.193,16.365,13.989,21.736c5.478,2.724,12.017,2.235,19.436-1.455c0.172-0.087,0.383-0.015,0.469,0.158    c0.086,0.173,0.016,0.383-0.158,0.469C311.093,222.44,307.008,223.529,303.248,223.529z"/><path fill="#231F20" d="M347.588,131.162c-0.146,0-0.283-0.093-0.332-0.239c-0.061-0.184,0.038-0.381,0.221-0.443    c0.051-0.017,5.157-1.763,6.964-5.736c0.891-1.959,0.841-4.154-0.146-6.525c-0.074-0.179,0.01-0.383,0.188-0.458    c0.178-0.072,0.383,0.01,0.458,0.188c1.066,2.559,1.112,4.944,0.136,7.087c-1.936,4.252-7.157,6.034-7.378,6.107    C347.662,131.156,347.625,131.162,347.588,131.162z"/><path fill="#231F20" d="M348.248,134.43c-0.148,0-0.285-0.094-0.333-0.242c-0.06-0.184,0.042-0.381,0.225-0.441l4.946-1.603    c0.049-0.016,4.66-1.507,6.407-5.162c0.146-0.302,0.357-0.841,0.142-1.073c-0.495-0.535-2.789-0.11-5.846,1.082    c-0.178,0.068-0.383-0.019-0.453-0.199c-0.07-0.18,0.019-0.383,0.199-0.453c2.497-0.974,5.672-1.921,6.613-0.905    c0.379,0.409,0.371,1.032-0.024,1.851c-1.88,3.933-6.625,5.463-6.826,5.526l-4.943,1.602    C348.32,134.425,348.284,134.43,348.248,134.43z"/><path fill="#231F20" d="M311.363,143.498c-0.064,0-0.129-0.018-0.188-0.055c-0.163-0.104-0.211-0.32-0.107-0.483    c0.226-0.354,5.607-8.685,13.323-9.101c0.204-0.002,0.358,0.137,0.369,0.331c0.01,0.193-0.138,0.358-0.331,0.369    c-7.353,0.396-12.717,8.694-12.77,8.778C311.592,143.44,311.479,143.498,311.363,143.498z"/><path fill="#231F20" d="M364.189,97.877c-1.146,0-2.617-0.354-3.957-0.897c-2.126-0.864-3.78-2.088-4.214-3.121    c-0.142-0.338-0.156-0.652-0.042-0.931c0.527-1.295,3.424-0.934,5.88,0.064c2.123,0.86,3.778,2.085,4.214,3.119    c0.143,0.339,0.158,0.652,0.044,0.932c0,0,0,0,0,0.001C365.875,97.632,365.145,97.877,364.189,97.877z M357.907,92.793    c-0.72,0-1.182,0.155-1.281,0.4c-0.042,0.102-0.029,0.235,0.039,0.396c0.289,0.689,1.612,1.841,3.832,2.743    c2.698,1.093,4.747,0.995,4.973,0.446c0.041-0.101,0.027-0.234-0.041-0.395c-0.292-0.691-1.616-1.844-3.833-2.743    C360.099,93.034,358.803,92.793,357.907,92.793z M365.792,96.911h0.009H365.792z"/><path fill="#231F20" d="M393.938,111.252c-6.188,0-21.497-5.1-35.583-11.077c-18.183-7.721-32.406-15.897-33.819-19.44    c-0.16-0.401-0.173-0.763-0.037-1.074c1.435-3.38,20.807,2.69,38.304,10.12c18.172,7.709,32.401,15.887,33.835,19.443    c0.162,0.401,0.176,0.763,0.043,1.074c0,0.001,0,0.001,0,0.002C396.396,110.955,395.433,111.252,393.938,111.252z M327.084,79.344    c-1.107,0-1.773,0.196-1.942,0.594c-0.06,0.137-0.044,0.317,0.044,0.539c1.328,3.332,15.705,11.524,33.442,19.055    c20.882,8.861,36.471,12.639,37.41,10.491c0.057-0.134,0.04-0.314-0.05-0.537c-1.348-3.345-15.732-11.54-33.459-19.06    C345.49,83.19,331.982,79.344,327.084,79.344z M396.359,110.16h0.009H396.359z"/><path fill="#231F20" d="M302.954,228.494c-4.669,0-8.933-1.085-12.756-3.255c-12.86-7.299-16.278-24.6-16.311-24.773    c-0.036-0.19,0.088-0.373,0.278-0.409c0.188-0.037,0.373,0.088,0.409,0.278c0.033,0.171,3.395,17.162,15.973,24.298    c7.097,4.026,15.781,4.206,25.812,0.536c0.18-0.067,0.382,0.027,0.449,0.208s-0.027,0.382-0.208,0.449    C311.737,227.605,307.179,228.494,302.954,228.494z"/><path fill="#231F20" d="M424.66,140.296c-0.067,0-0.136-0.02-0.196-0.061c-0.16-0.108-0.202-0.326-0.093-0.486    c0.892-1.315,1.113-2.932,1.142-4.056c0.018-0.461,0.013-0.829-0.015-1.128c-0.018-0.193,0.124-0.363,0.316-0.381    c0.197-0.023,0.363,0.124,0.381,0.316c0.031,0.331,0.037,0.728,0.018,1.216c-0.031,1.213-0.275,2.97-1.262,4.426    C424.883,140.243,424.772,140.296,424.66,140.296z"/><path fill="#231F20" d="M283.926,80.512c-0.165,0-0.312-0.118-0.344-0.286c-0.6-3.205,4.044-7.142,4.242-7.308    c0.148-0.125,0.368-0.105,0.493,0.043c0.124,0.148,0.105,0.369-0.043,0.493c-0.045,0.038-4.529,3.839-4.003,6.643    c0.035,0.19-0.09,0.373-0.28,0.409C283.969,80.51,283.948,80.512,283.926,80.512z"/><path fill="#231F20" d="M470.17,74.132c-0.529,0-1.122-0.296-1.983-0.727c-0.257-0.128-0.54-0.27-0.854-0.42    c-0.264-0.126-0.512-0.237-0.739-0.339c-0.905-0.405-1.559-0.697-1.792-1.333c-0.185-0.503-0.068-1.127,0.391-2.087l2.12-4.428v0    c2.328-4.866,5.895-5.671,9.343-6.45c3.017-0.681,5.866-1.324,7.542-4.825c0.606-1.268,0.843-2.682,0.648-3.878    c-0.154-0.951-0.662-2.238-2.199-2.973c-2.128-1.02-3.936-0.02-5.256,0.709c-0.824,0.455-1.416,0.785-1.922,0.542    c-0.148-0.071-0.424-0.203-1.033-1.934c-0.521-1.483-1.676-5.536-1.308-6.301c0.541-1.129,2.608-2.168,5.144-2.583    c1.733-0.282,5.159-0.513,8.629,1.151c3.753,1.795,6.422,5.057,7.515,9.183c1.021,3.853,0.574,8.218-1.226,11.978    c-3.296,6.89-9.526,8.372-14.532,9.562c-3.159,0.751-5.653,1.344-6.474,3.062c-0.536,1.12-0.967,1.809-1.588,2.022    C470.454,74.11,470.314,74.132,470.17,74.132z M480.792,45.537c0.676,0,1.396,0.141,2.154,0.504    c1.433,0.685,2.328,1.893,2.588,3.492c0.217,1.334-0.041,2.899-0.707,4.292c-1.822,3.807-4.973,4.519-8.019,5.206    c-3.286,0.742-6.684,1.509-8.866,6.069c0,0,0,0,0,0l-2.12,4.427c-0.36,0.752-0.476,1.242-0.365,1.543    c0.131,0.359,0.672,0.601,1.421,0.935c0.233,0.104,0.485,0.217,0.755,0.346c0.319,0.153,0.606,0.296,0.866,0.426    c0.934,0.467,1.497,0.746,1.866,0.622c0.33-0.113,0.673-0.595,1.183-1.662c0.965-2.019,3.736-2.678,6.944-3.441    c4.861-1.156,10.911-2.595,14.062-9.183c1.729-3.612,2.159-7.802,1.181-11.497c-1.04-3.924-3.575-7.025-7.14-8.73    c-3.298-1.58-6.562-1.361-8.213-1.091c-2.547,0.417-4.255,1.42-4.625,2.195c-0.236,0.729,1.455,6.821,2.037,7.316    c0.159,0.069,0.766-0.267,1.256-0.539C477.998,46.245,479.28,45.537,480.792,45.537z M467.626,64.95h0.009H467.626z"/><path fill="#231F20" d="M462.69,90.388c-1.007,0-2.016-0.229-2.964-0.682c-1.596-0.762-2.794-2.095-3.374-3.751    c-0.576-1.647-0.477-3.426,0.28-5.008l0,0c0.733-1.536,2.035-2.699,3.667-3.274c1.656-0.584,3.429-0.493,4.997,0.258    c1.678,0.802,2.933,2.181,3.533,3.883c0.569,1.616,0.474,3.357-0.268,4.903c-0.741,1.552-2.04,2.721-3.657,3.292    C464.185,90.261,463.438,90.388,462.69,90.388z M462.498,77.992c-0.659,0-1.322,0.113-1.965,0.34    c-1.455,0.514-2.616,1.549-3.268,2.916l0,0c-0.677,1.414-0.766,3.003-0.251,4.475c0.517,1.479,1.588,2.669,3.015,3.351    c1.483,0.71,3.133,0.807,4.643,0.273c1.441-0.509,2.599-1.551,3.259-2.934c0.661-1.378,0.746-2.929,0.239-4.368    c-0.538-1.525-1.665-2.762-3.175-3.484C464.204,78.183,463.354,77.992,462.498,77.992z M456.949,81.097h0.009H456.949z"/><path fill="#231F20" d="M435.212,70.258c-0.474,0-0.859-0.079-1.172-0.344c-0.41-0.346-0.616-0.946-0.689-2.006l-0.344-4.897    c-0.379-5.382,2.324-7.843,4.938-10.224c2.287-2.082,4.446-4.047,4.174-7.917c-0.19-2.731-1.881-5.389-4.731-5.194    c-2.354,0.166-3.433,1.928-4.22,3.215c-0.491,0.802-0.845,1.381-1.403,1.42c-0.009,0-0.018,0.001-0.026,0.001    c-0.61,0-2.164-1.417-3.369-2.616c-0.798-0.794-2.66-2.714-2.709-3.387c-0.168-2.442,4.829-7.599,11.27-8.052    c4.148-0.295,8.082,1.226,11.069,4.274c2.79,2.847,4.557,6.864,4.848,11.021c0.539,7.622-4.147,11.987-7.912,15.495    c-2.375,2.212-4.25,3.96-4.118,5.858c0.087,1.237,0.052,2.049-0.382,2.541c-0.453,0.512-1.192,0.55-2.416,0.614    c-0.287,0.015-0.604,0.031-0.953,0.056c-0.289,0.021-0.557,0.047-0.804,0.071C435.872,70.224,435.522,70.258,435.212,70.258z     M437.694,38.963c3.098,0,4.917,2.89,5.124,5.856c0.295,4.208-2.092,6.382-4.401,8.484c-2.491,2.268-5.067,4.613-4.712,9.657l0,0    l0.344,4.897c0.058,0.831,0.199,1.314,0.443,1.521c0.293,0.248,0.885,0.19,1.703,0.109c0.252-0.024,0.526-0.051,0.822-0.073    c0.354-0.024,0.675-0.042,0.966-0.057c1.041-0.054,1.669-0.086,1.928-0.378c0.231-0.261,0.292-0.849,0.208-2.028    c-0.156-2.232,1.927-4.172,4.338-6.419c3.656-3.406,8.207-7.646,7.691-14.934c-0.279-3.995-1.974-7.851-4.649-10.581    c-2.842-2.899-6.576-4.344-10.521-4.066c-6.162,0.434-10.747,5.465-10.62,7.304c0.157,0.751,4.638,5.213,5.386,5.354    c0.169-0.014,0.533-0.609,0.826-1.087c0.818-1.337,2.055-3.357,4.769-3.548C437.459,38.968,437.578,38.963,437.694,38.963z"/><path fill="#231F20" d="M438.229,88.429c-1.583,0-3.091-0.559-4.291-1.601c-1.323-1.149-2.119-2.75-2.242-4.506l0,0    c-0.122-1.712,0.446-3.377,1.599-4.688c1.148-1.305,2.726-2.091,4.444-2.212c3.773-0.263,6.924,2.383,7.181,6.026    c0.124,1.763-0.459,3.455-1.641,4.764c-1.168,1.294-2.791,2.075-4.569,2.199C438.549,88.424,438.389,88.429,438.229,88.429z     M438.253,76.105c-0.154,0-0.309,0.005-0.465,0.016c-1.532,0.108-2.941,0.81-3.967,1.976c-1.028,1.169-1.535,2.652-1.426,4.175    c0,0,0,0,0,0c0.109,1.57,0.821,3,2.002,4.027c1.178,1.023,2.69,1.526,4.263,1.414c1.597-0.111,3.053-0.811,4.099-1.97    c1.053-1.167,1.573-2.674,1.462-4.246C444.003,78.397,441.422,76.105,438.253,76.105z"/><path fill="#231F20" d="M430.709,132.828c-0.177,0-0.329-0.134-0.348-0.313c-0.957-9.117-10.912-13.372-11.012-13.414    c-0.178-0.075-0.263-0.28-0.188-0.458s0.281-0.262,0.458-0.188c0.104,0.044,10.439,4.461,11.439,13.987    c0.02,0.192-0.119,0.365-0.312,0.385C430.733,132.827,430.721,132.828,430.709,132.828z"/><path fill="#231F20" d="M434.917,130.706c-0.166,0-0.313-0.119-0.344-0.288c-1.674-9.25-8.62-11.98-8.69-12.006    c-0.181-0.068-0.272-0.271-0.204-0.451c0.068-0.181,0.27-0.271,0.45-0.204c0.074,0.028,7.384,2.881,9.132,12.537    c0.035,0.19-0.092,0.373-0.282,0.407C434.958,130.704,434.938,130.706,434.917,130.706z"/><path fill="#231F20" d="M278.107,142.954c-0.069,0-0.139-0.021-0.199-0.063c-0.091-0.063-2.252-1.589-4.547-5.153    c-2.106-3.271-4.718-8.954-5.197-17.45c-0.29-5.14,0.939-8.954,3.651-11.336c3.76-3.303,9.101-2.776,10.401-2.588    c0.623-1.484,3.894-8.521,10.818-10.934c4.755-1.655,10.145-0.725,16.018,2.768c4,2.378,7.703,4.645,11.284,6.837    c13.21,8.086,22.755,13.929,27.759,13.394c1.65-0.176,2.635-0.584,2.775-1.15c0.224-0.904-1.505-2.303-2.129-2.722    c-0.16-0.108-0.203-0.325-0.095-0.486c0.107-0.16,0.325-0.203,0.486-0.095c0.288,0.193,2.798,1.932,2.417,3.471    c-0.225,0.91-1.331,1.459-3.38,1.678c-5.236,0.557-14.87-5.335-28.199-13.494c-3.579-2.191-7.28-4.456-11.275-6.832    c-5.688-3.382-10.88-4.294-15.43-2.708c-7.288,2.539-10.47,10.705-10.501,10.787c-0.06,0.159-0.226,0.25-0.392,0.22    c-0.061-0.012-6.141-1.097-10.098,2.382c-2.54,2.233-3.687,5.856-3.41,10.768c0.896,15.917,9.359,22.008,9.445,22.068    c0.158,0.111,0.197,0.329,0.087,0.487C278.327,142.902,278.218,142.954,278.107,142.954z"/><path fill="#231F20" d="M292.033,161.804c-0.016,0-0.032-0.001-0.049-0.003c-0.191-0.026-0.325-0.204-0.298-0.395    c1.842-13.264-7.579-18.712-7.674-18.765c-0.168-0.095-0.229-0.308-0.134-0.477s0.308-0.23,0.476-0.135    c0.1,0.056,9.937,5.72,8.026,19.473C292.355,161.677,292.205,161.804,292.033,161.804z"/><path fill="#231F20" d="M282.436,155.093c-0.06,0-0.121-0.016-0.177-0.048c-0.167-0.098-0.223-0.312-0.125-0.479    c0.084-0.143,2.132-3.53,8.42-4.958c0.189-0.041,0.375,0.075,0.419,0.264c0.043,0.188-0.075,0.376-0.264,0.419    c-5.996,1.361-7.953,4.597-7.972,4.629C282.673,155.031,282.556,155.093,282.436,155.093z"/><path fill="#231F20" d="M349.244,137.08c-0.047,0-0.095-0.01-0.141-0.03c-2.737-1.206-7.606-2.087-7.655-2.095    c-0.19-0.034-0.317-0.216-0.283-0.406c0.034-0.19,0.22-0.313,0.406-0.283c0.203,0.037,5.001,0.905,7.814,2.144    c0.177,0.078,0.257,0.285,0.179,0.461C349.506,137.002,349.378,137.08,349.244,137.08z"/><path fill="#231F20" d="M327.613,148.382c-0.143,0-0.277-0.088-0.329-0.229c-0.695-1.896-1.58-4.172-1.58-4.172l0.652-0.254    c0,0,0.888,2.282,1.585,4.185c0.066,0.182-0.027,0.383-0.208,0.449C327.693,148.375,327.653,148.382,327.613,148.382z"/><path fill="#231F20" d="M348.885,146.736c-0.017,0-0.035-0.001-0.052-0.004c-0.191-0.029-0.323-0.207-0.294-0.398    c0.001-0.008,0.132-1.21-1.251-3.552c-0.099-0.167-0.043-0.381,0.123-0.479c0.168-0.099,0.381-0.043,0.479,0.123    c1.532,2.593,1.35,3.956,1.341,4.012C349.205,146.612,349.056,146.736,348.885,146.736z"/><path fill="#231F20" d="M334.212,180.265c-0.198,0-0.398-0.022-0.599-0.068c-0.933-0.214-1.576-0.91-1.859-2.012    c-0.625-2.429,0.677-6.31,2.73-8.143c1.256-1.121,2.66-1.431,4.059-0.896c1.324,0.506,1.641,2.603,0.808,5.341    C338.44,177.483,336.435,180.265,334.212,180.265z M337.223,169.595c-0.952,0-1.732,0.487-2.272,0.969    c-1.887,1.684-3.087,5.233-2.519,7.446c0.217,0.844,0.667,1.351,1.337,1.504c2.017,0.467,4.036-2.351,4.912-5.231    c0.695-2.287,0.536-4.13-0.388-4.483C337.917,169.656,337.559,169.595,337.223,169.595z"/><path fill="#231F20" d="M288.23,369.39c-51.209,0-104.178-4.716-104.178-12.609c0-5.282,23.706-8.396,37.836-9.782    c0.191-0.024,0.364,0.121,0.382,0.314c0.019,0.192-0.122,0.364-0.314,0.382c-34.521,3.386-37.204,7.81-37.204,9.085    c0,2.985,11.253,6.095,30.102,8.321c19.597,2.314,45.656,3.588,73.376,3.588s53.779-1.274,73.376-3.588    c18.849-2.226,30.102-5.336,30.102-8.321c0-3.005-11.38-6.131-30.443-8.361c-0.192-0.022-0.33-0.196-0.307-0.388    s0.198-0.323,0.388-0.307c14.17,1.658,31.062,4.575,31.062,9.056C392.408,364.674,339.439,369.39,288.23,369.39z"/><path fill="#231F20" d="M279.245,64.56c-0.108,0-0.215-0.05-0.284-0.145c-0.114-0.156-0.079-0.375,0.078-0.489    c2.667-1.938,4.17-1.64,4.231-1.627c0.189,0.041,0.309,0.228,0.268,0.416c-0.041,0.189-0.231,0.313-0.416,0.268    c-0.009,0-1.295-0.217-3.671,1.51C279.388,64.538,279.316,64.56,279.245,64.56z"/><path fill="#231F20" d="M283.196,66.08c-0.117,0-0.231-0.058-0.297-0.165c-0.103-0.164-0.053-0.38,0.111-0.482    c1.642-1.026,4.98-2.017,5.121-2.059c0.186-0.054,0.379,0.051,0.435,0.237c0.054,0.186-0.052,0.38-0.237,0.435    c-0.034,0.01-3.388,1.005-4.948,1.98C283.324,66.062,283.259,66.08,283.196,66.08z"/><path fill="#231F20" d="M288.23,67.262c-0.139,0-0.27-0.083-0.325-0.22c-0.072-0.179,0.015-0.383,0.194-0.455    c5.412-2.176,8.275-1.229,8.395-1.188c0.182,0.063,0.278,0.261,0.216,0.444s-0.263,0.282-0.444,0.218    c-0.028-0.009-2.768-0.89-7.906,1.176C288.318,67.253,288.274,67.262,288.23,67.262z"/></svg>